<svg id="ApplePay"
  xmlns="http://www.w3.org/2000/svg" width="70" height="48" viewBox="0 0 70 48">
  <rect id="Rechteck_300" data-name="Rechteck 300" width="69" height="47" rx="5.5" transform="translate(0.5 0.5)" fill="#fff" stroke="#d9d9d9" stroke-width="1"/>
  <path id="Pfad_78" data-name="Pfad 78" d="M19.16,16.686a3.062,3.062,0,0,1-2.468,1.18,3.56,3.56,0,0,1,.882-2.587A3.659,3.659,0,0,1,20.022,14,3.791,3.791,0,0,1,19.16,16.686Zm.852,1.368a5.131,5.131,0,0,0-2.194.5,3.119,3.119,0,0,1-.979.288,3.1,3.1,0,0,1-1.019-.3,4.415,4.415,0,0,0-1.7-.428,4.017,4.017,0,0,0-3.418,2.1c-1.469,2.558-.382,6.344,1.038,8.426.7,1.03,1.528,2.16,2.625,2.121a3.09,3.09,0,0,0,1.188-.322,3.5,3.5,0,0,1,1.514-.362,3.291,3.291,0,0,1,1.453.352,2.767,2.767,0,0,0,1.27.312c1.136-.02,1.85-1.03,2.546-2.061a9.114,9.114,0,0,0,1.13-2.35l.006-.02-.027-.013a3.714,3.714,0,0,1-2.186-3.387,3.8,3.8,0,0,1,1.762-3.172l.03-.02a3.87,3.87,0,0,0-3.036-1.665Zm7.863,12.58V15.18H33.6a4.817,4.817,0,0,1,5.023,5.075,4.875,4.875,0,0,1-5.1,5.095h-3.28v5.283h-2.37ZM30.245,17.2h2.732c2.057,0,3.232,1.11,3.232,3.063s-1.175,3.073-3.242,3.073H30.245V17.2ZM46.452,28.78a3.912,3.912,0,0,1-3.5,1.972c-2.2,0-3.74-1.328-3.74-3.33,0-1.983,1.488-3.123,4.24-3.291l2.957-.179V23.1c0-1.26-.813-1.943-2.262-1.943a2.083,2.083,0,0,0-2.243,1.576H39.773c.069-2,1.93-3.46,4.446-3.46,2.713,0,4.475,1.438,4.475,3.668v7.692H46.5V28.78Zm-2.86.139c-1.263,0-2.066-.615-2.066-1.557,0-.971.774-1.536,2.252-1.625l2.635-.169v.872a2.587,2.587,0,0,1-2.82,2.479ZM55.97,31.238c-.95,2.706-2.037,3.6-4.348,3.6a6.372,6.372,0,0,1-.9-.06V32.923c.146.02.509.04.695.04a1.888,1.888,0,0,0,2-1.606l.216-.684-4.015-11.25h2.477l2.791,9.129h.05l2.79-9.13h2.41Z" fill-rule="evenodd"/>
</svg>