<svg id="Giropay"
  xmlns="http://www.w3.org/2000/svg" width="70" height="48" viewBox="0 0 70 48">
  <rect id="Rechteck_302" data-name="Rechteck 302" width="69" height="47" rx="5.5" transform="translate(0.5 0.5)" fill="#fff" stroke="#d9d9d9" stroke-width="1"/>
  <path id="Pfad_84" data-name="Pfad 84" d="M15.447,15.486a1.985,1.985,0,0,0-1.973,1.99v13.21a2.036,2.036,0,0,0,.175.818,1.975,1.975,0,0,0,1.8,1.171H35.985V15.485H15.447Zm0-1.486H54.753A3.461,3.461,0,0,1,58.2,17.475v13.21a3.462,3.462,0,0,1-3.447,3.476H15.447A3.463,3.463,0,0,1,12,30.685V17.475A3.46,3.46,0,0,1,15.447,14Z" fill="#0f3365" fill-rule="evenodd"/>
  <path id="Pfad_85" data-name="Pfad 85" d="M39.346,28.524H37.622v-7.06h1.59v.908h.02a1.961,1.961,0,0,1,1.858-1.024,2.341,2.341,0,0,1,2.136,2.54c0,1.488-.795,2.724-2.28,2.724a1.728,1.728,0,0,1-1.581-.82h-.02v2.732ZM40.4,25.28c.651,0,1.044-.55,1.044-1.352A1.11,1.11,0,0,0,40.4,22.682c-.632,0-1.054.56-1.054,1.314A1.176,1.176,0,0,0,40.4,25.28Zm9.433,3.246a4.99,4.99,0,0,0,1.073.116c1.492,0,1.908-1.092,2.36-2.277l.083-.215,1.83-4.685H53.455l-1.026,3.284H52.41l-1.073-3.284H49.479l2.02,5.148a.876.876,0,0,1-.87.7,2.02,2.02,0,0,1-.68-.107l-.116,1.324Zm-.643-1.865a6.221,6.221,0,0,1-.1-1.188V23.6c0-1.535-1.1-2.086-2.375-2.086a5.106,5.106,0,0,0-1.993.358l.028,1.178a3.231,3.231,0,0,1,1.59-.377c.623,0,1.131.184,1.14.87a4.964,4.964,0,0,0-.8-.069c-.92,0-2.577.184-2.577,1.72,0,1.092.882,1.584,1.868,1.584a1.709,1.709,0,0,0,1.581-.908h.019c0,.153.01.307.02.462.007.109.014.219.018.33H49.19Zm-3.478-1.593c0-.483.46-.667,1.045-.667.183,0,.361.01.528.019l.2.01a1.131,1.131,0,0,1-1.064,1.189c-.4,0-.709-.2-.709-.551Z" fill="#fffffe" fill-rule="evenodd"/>
  <path id="Pfad_86" data-name="Pfad 86" d="M22.635,26.5h1.724V21.464H22.635V26.5Zm0-5.853h1.724V19.368H22.635v1.275Zm5.942.7a3.762,3.762,0,0,1,.584.058l-.087,1.449a1.963,1.963,0,0,0-.584-.058c-.8,0-1.255.59-1.255,1.575V26.5H25.511V21.464h1.571v.927h.02a1.539,1.539,0,0,1,1.475-1.043Zm6.455,2.637a2.623,2.623,0,0,1-2.9,2.627,2.645,2.645,0,1,1,0-5.264A2.625,2.625,0,0,1,35.032,23.985Zm-4.023,0c0,.744.326,1.41,1.121,1.41s1.121-.666,1.121-1.41-.326-1.42-1.12-1.42-1.122.667-1.122,1.42Zm-11.126-2.52h1.562v4.442c0,2.067-1,2.734-3.008,2.734a5.788,5.788,0,0,1-1.907-.319l.087-1.371a3.415,3.415,0,0,0,1.686.415c1,0,1.533-.474,1.533-1.459v-.27h-.02a1.936,1.936,0,0,1-1.676.859,2.254,2.254,0,0,1-2.223-2.53c0-1.5.7-2.618,2.252-2.618a1.946,1.946,0,0,1,1.695,1.024h.02v-.908Zm-1.206,1.216c-.642,0-.978.57-.978,1.256,0,.782.46,1.226.978,1.226a1.171,1.171,0,0,0,1.1-1.294A1.1,1.1,0,0,0,18.677,22.681Z" fill="#d8232a" fill-rule="evenodd"/>
</svg>