<svg id="GooglePay"
  xmlns="http://www.w3.org/2000/svg" width="70" height="48" viewBox="0 0 70 48">
  <rect id="Rechteck_301" data-name="Rechteck 301" width="69" height="47" rx="5.5" transform="translate(0.5 0.5)" fill="#fff" stroke="#d9d9d9" stroke-width="1"/>
  <path id="Pfad_79" data-name="Pfad 79" d="M33.06,31.516V25.474h3.119A4.5,4.5,0,0,0,39.414,24.2l.211-.215a4.35,4.35,0,0,0-.21-6.089,4.451,4.451,0,0,0-3.236-1.3H31.173V31.516Zm0-7.873v-5.21h3.166a2.556,2.556,0,0,1,1.806.738,2.651,2.651,0,0,1,.059,3.7,2.45,2.45,0,0,1-1.865.774H33.06Zm15.37-1.535a4.683,4.683,0,0,0-3.307-1.13,4.545,4.545,0,0,0-4.032,1.987l1.664,1.058a2.862,2.862,0,0,1,2.5-1.356,2.719,2.719,0,0,1,1.817.7,2.25,2.25,0,0,1,.774,1.7v.44a5.623,5.623,0,0,0-2.767-.618,4.9,4.9,0,0,0-3.153.94,3.064,3.064,0,0,0-1.184,2.521,3.174,3.174,0,0,0,1.114,2.5,4.012,4.012,0,0,0,2.778,1,3.593,3.593,0,0,0,3.118-1.75h.082v1.416h1.806V25.225a4.049,4.049,0,0,0-1.208-3.117Zm-5.123,7.529a1.55,1.55,0,0,1-.622-1.249A1.669,1.669,0,0,1,43.447,27a3.226,3.226,0,0,1,1.923-.56,3.751,3.751,0,0,1,2.463.7,2.826,2.826,0,0,1-.938,2.1,2.978,2.978,0,0,1-2.123.893,2.284,2.284,0,0,1-1.465-.5ZM53.693,36,60,21.311H57.95l-2.92,7.327h-.035L52,21.311h-2.05l4.138,9.551L51.747,36Z" fill="#3c4043" fill-rule="evenodd"/>
  <path id="Pfad_80" data-name="Pfad 80" d="M26.544,24.166a10.8,10.8,0,0,0-.14-1.736h-7.96v3.294H23a3.97,3.97,0,0,1-1.688,2.605v2.14h2.72a8.415,8.415,0,0,0,2.508-6.3Z" fill="#4285f4"/>
  <path id="Pfad_81" data-name="Pfad 81" d="M18.444,32.539a8,8,0,0,0,5.592-2.07l-2.72-2.14a5.008,5.008,0,0,1-2.872.82,5.058,5.058,0,0,1-4.736-3.532h-2.8v2.212A8.42,8.42,0,0,0,18.444,32.539Z" fill="#34a853"/>
  <path id="Pfad_82" data-name="Pfad 82" d="M13.708,25.617a5.237,5.237,0,0,1,0-3.283v-2.2h-2.8a8.6,8.6,0,0,0,0,7.683l2.8-2.2Z" fill="#fbbc04"/>
  <path id="Pfad_83" data-name="Pfad 83" d="M18.444,18.8a4.508,4.508,0,0,1,3.236,1.284l2.414-2.45a8.083,8.083,0,0,0-5.65-2.224,8.43,8.43,0,0,0-7.538,4.722l2.8,2.212A5.054,5.054,0,0,1,18.444,18.8Z" fill="#ea4335"/>
</svg>