<svg id="Klarna"
  xmlns="http://www.w3.org/2000/svg" width="70" height="48" viewBox="0 0 70 48">
  <rect id="Rechteck_303" data-name="Rechteck 303" width="69" height="47" rx="5.5" transform="translate(0.5 0.5)" fill="#fff" stroke="#d9d9d9" stroke-width="1"/>
  <path id="Pfad_87" data-name="Pfad 87" d="M10.848,30.76H8V18h2.848ZM17.96,18H15.174a7.4,7.4,0,0,1-2.881,5.913l-1.1.85,4.278,6h3.517l-3.936-5.518A10.3,10.3,0,0,0,17.96,18ZM22.5,30.756h-2.69V18H22.5Zm8.127-8.822V22.5a4.418,4.418,0,0,0-2.547-.808,4.657,4.657,0,0,0,0,9.31,4.428,4.428,0,0,0,2.547-.808v.564H33.2V21.934H30.63Zm-.008,4.411a2.329,2.329,0,1,1-2.328-2.27A2.3,2.3,0,0,1,30.623,26.345ZM57.735,22.5v-.564h2.57v8.822h-2.57v-.564A4.419,4.419,0,0,1,55.188,31a4.657,4.657,0,0,1,0-9.31A4.426,4.426,0,0,1,57.735,22.5ZM55.4,28.615a2.271,2.271,0,1,0-2.328-2.27A2.3,2.3,0,0,0,55.4,28.615Zm6.02.67a1.613,1.613,0,1,1,1.613,1.657,1.636,1.636,0,0,1-1.613-1.657ZM46.1,21.7a3.087,3.087,0,0,0-2.647,1.23v-.993H40.89v8.822h2.59V26.12a1.834,1.834,0,0,1,1.928-2c1.13,0,1.778.694,1.778,1.98v4.655h2.566v-5.61a3.437,3.437,0,0,0-3.657-3.45Zm-8.92.237v1.149a3.163,3.163,0,0,1,2.517-1.149V24.5h-.03a2.4,2.4,0,0,0-2.482,2.136v4.119H34.544V21.934h2.63Z" fill="#17120f" fill-rule="evenodd"/>
</svg>