<svg id="SEPA"
  xmlns="http://www.w3.org/2000/svg" width="70" height="48" viewBox="0 0 70 48">
  <rect id="Rechteck_305" data-name="Rechteck 305" width="69" height="47" rx="5.5" transform="translate(0.5 0.5)" fill="#fff" stroke="#d9d9d9" stroke-width="1"/>
  <path id="Pfad_92" data-name="Pfad 92" d="M39.821,22.976h2.292a4.069,4.069,0,0,0,1.328-.17.983.983,0,0,0,.435-.718,6,6,0,0,0,.07-1.068,4.389,4.389,0,0,0-.139-1.287,1.1,1.1,0,0,0-.95-.719c-.1-.013-.337-.02-.713-.02H39.821v3.982Zm-3.676,6.707V16h6.85a7.661,7.661,0,0,1,2.148.23,3.345,3.345,0,0,1,2.27,2.172,8.4,8.4,0,0,1,.3,2.593,9.674,9.674,0,0,1-.331,2.993,3.079,3.079,0,0,1-2.71,2.071q-.24.041-2.049.07l-.61.021H39.82v3.533H36.144Zm-18.46-9.318h3.42c.022-.3.033-.529.033-.68q0-2.766-2.232-3.366a13.261,13.261,0,0,0-3.068-.247q-1.368,0-2.488.1a4.32,4.32,0,0,0-2.212.727,2.253,2.253,0,0,0-.856,1.18,6.541,6.541,0,0,0-.265,2.063,5.112,5.112,0,0,0,.49,2.525,3.042,3.042,0,0,0,2.239,1.3q.638.109,2.277.226a20.522,20.522,0,0,1,2.288.216q.658.2.658,1.1a2.309,2.309,0,0,1-.078.66,1,1,0,0,1-.62.6,4.521,4.521,0,0,1-1.227.1H14.786a2,2,0,0,1-.855-.187q-.51-.255-.51-1.146v-.285H10a8.1,8.1,0,0,0,.246,2.386,2.613,2.613,0,0,0,1.83,1.709,15.705,15.705,0,0,0,4,.344,15.094,15.094,0,0,0,2.558-.158,3.122,3.122,0,0,0,2.567-1.78,6.818,6.818,0,0,0,.315-2.419,10.813,10.813,0,0,0-.069-1.288,2.472,2.472,0,0,0-.74-1.544,4.216,4.216,0,0,0-2.541-.934q-1.383-.123-2.77-.207l-.69-.049a1.609,1.609,0,0,1-.729-.2,1.069,1.069,0,0,1-.384-.984q0-.825.433-1.072a4.17,4.17,0,0,1,1.773-.245q1.38,0,1.685.426a2.212,2.212,0,0,1,.2,1.132ZM10.013,32.4l.513-.051a.626.626,0,0,0,.187.381.566.566,0,0,0,.382.122.586.586,0,0,0,.384-.108.322.322,0,0,0,.129-.254.241.241,0,0,0-.054-.158.434.434,0,0,0-.19-.113q-.208-.064-.42-.114a1.422,1.422,0,0,1-.593-.257.68.68,0,0,1-.127-.9.708.708,0,0,1,.326-.264,1.317,1.317,0,0,1,.514-.09,1.1,1.1,0,0,1,.739.215.765.765,0,0,1,.26.578l-.527.02a.452.452,0,0,0-.146-.29.527.527,0,0,0-.333-.088.6.6,0,0,0-.36.095.19.19,0,0,0-.083.162.2.2,0,0,0,.078.159,1.39,1.39,0,0,0,.484.174,2.51,2.51,0,0,1,.568.188.734.734,0,0,1,.288.266.805.805,0,0,1-.373,1.132,1.475,1.475,0,0,1-.568.1,1.131,1.131,0,0,1-.761-.23A1,1,0,0,1,10.013,32.4Zm2.67-1.037h.5v1.893h-.5V31.36Zm0-.721h.5V31.1h-.5v-.462Zm2.345,2.614h.5V32.073a1.6,1.6,0,0,0-.027-.337.553.553,0,0,0-.1-.211.507.507,0,0,0-.207-.153.769.769,0,0,0-.926.265v-.278h-.466v1.893h.5v-.86a1.662,1.662,0,0,1,.038-.435.358.358,0,0,1,.141-.19.4.4,0,0,1,.233-.071.3.3,0,0,1,.172.05.28.28,0,0,1,.1.14,1.522,1.522,0,0,1,.032.4v.968Zm1.518-.987a.69.69,0,0,0,.116.442.354.354,0,0,0,.285.14.392.392,0,0,0,.308-.143.636.636,0,0,0,.125-.427.673.673,0,0,0-.12-.438.38.38,0,0,0-.3-.143.365.365,0,0,0-.294.14.668.668,0,0,0-.116.429Zm-.45,1.112.57.062a.215.215,0,0,0,.065.146.37.37,0,0,0,.226.056.605.605,0,0,0,.3-.058.244.244,0,0,0,.1-.127.764.764,0,0,0,.023-.23v-.277a.673.673,0,0,1-.564.3.7.7,0,0,1-.6-.323,1.1,1.1,0,0,1-.174-.636,1.047,1.047,0,0,1,.229-.729.738.738,0,0,1,.569-.252.691.691,0,0,1,.579.31v-.263h.466v1.7a1.7,1.7,0,0,1-.055.5.619.619,0,0,1-.155.26.686.686,0,0,1-.267.149,1.4,1.4,0,0,1-.421.053,1.085,1.085,0,0,1-.684-.166.522.522,0,0,1-.2-.421c0-.017,0-.037,0-.061Zm2.885-2.74h-.5v2.615h.5V30.638Zm1.749,1.51a.5.5,0,0,0-.113-.336.361.361,0,0,0-.534.006.473.473,0,0,0-.106.33Zm-.026.509.5.083a.818.818,0,0,1-.305.417.9.9,0,0,1-.52.143.85.85,0,0,1-.733-.324,1.089,1.089,0,0,1-.187-.655,1.051,1.051,0,0,1,.246-.74.81.81,0,0,1,.623-.268.842.842,0,0,1,.668.28,1.252,1.252,0,0,1,.234.861H19.969a.506.506,0,0,0,.122.348.384.384,0,0,0,.291.125.315.315,0,0,0,.2-.064.393.393,0,0,0,.122-.206Zm2.166-2.018v2.614h1.984v-.44H23.4V32.1H24.7v-.441H23.4v-.581h1.4v-.441H22.87Zm3.78,2.614v-.283a.767.767,0,0,1-.972.246.5.5,0,0,1-.22-.236,1.052,1.052,0,0,1-.067-.42v-1.2h.5v.87a2.437,2.437,0,0,0,.028.49.27.27,0,0,0,.1.144.31.31,0,0,0,.186.052.393.393,0,0,0,.369-.245,2.1,2.1,0,0,0,.037-.512v-.8h.5v1.894h-.466Zm1.067,0h.5v-.585a2.978,2.978,0,0,1,.042-.636.407.407,0,0,1,.116-.21.28.28,0,0,1,.178-.057.436.436,0,0,1,.236.082l.153-.439a.634.634,0,0,0-.33-.095.387.387,0,0,0-.216.063.842.842,0,0,0-.215.253v-.27h-.466v1.894Zm1.942-.946a.632.632,0,0,0,.134.433.427.427,0,0,0,.33.15.423.423,0,0,0,.33-.15.638.638,0,0,0,.133-.437.627.627,0,0,0-.133-.43.438.438,0,0,0-.66,0,.628.628,0,0,0-.134.434Zm-.512-.027a1.019,1.019,0,0,1,.123-.485.846.846,0,0,1,.348-.358,1.03,1.03,0,0,1,.5-.124.944.944,0,0,1,.7.28.97.97,0,0,1,.274.708.982.982,0,0,1-.277.715.934.934,0,0,1-.7.284,1.1,1.1,0,0,1-.5-.118.807.807,0,0,1-.36-.346,1.158,1.158,0,0,1-.122-.556Zm4.116-.453v-.747h.254a2.486,2.486,0,0,1,.378.018.362.362,0,0,1,.211.116.342.342,0,0,1,.084.238.346.346,0,0,1-.224.334,1.38,1.38,0,0,1-.416.04h-.287Zm-.529-1.188v2.614h.529v-.985h.343a2.99,2.99,0,0,0,.546-.038.757.757,0,0,0,.273-.124.716.716,0,0,0,.221-.257.855.855,0,0,0,.087-.405.812.812,0,0,0-.15-.51.684.684,0,0,0-.376-.256,3.065,3.065,0,0,0-.627-.04h-.846Zm3.578,1.707a3.112,3.112,0,0,1-.3.077.9.9,0,0,0-.272.087.21.21,0,0,0-.1.178.248.248,0,0,0,.078.182.272.272,0,0,0,.2.077.43.43,0,0,0,.257-.09.314.314,0,0,0,.119-.166,1,1,0,0,0,.02-.245v-.1Zm-.674-.41-.45-.083a.71.71,0,0,1,.263-.407.957.957,0,0,1,.556-.133,1.2,1.2,0,0,1,.5.08.5.5,0,0,1,.23.2,1.023,1.023,0,0,1,.068.449l-.006.586a2.042,2.042,0,0,0,.024.369,1.067,1.067,0,0,0,.09.254h-.5a1.686,1.686,0,0,1-.066-.2.906.906,0,0,1-.274.188.783.783,0,0,1-.311.063.642.642,0,0,1-.46-.159.53.53,0,0,1-.168-.4.542.542,0,0,1,.076-.287.5.5,0,0,1,.215-.193,1.693,1.693,0,0,1,.4-.117,2.718,2.718,0,0,0,.486-.123v-.05a.265.265,0,0,0-.071-.21.43.43,0,0,0-.27-.062.36.36,0,0,0-.21.053.366.366,0,0,0-.122.186Zm2.06-.576h-.534l.72,1.9a.726.726,0,0,1-.128.265.316.316,0,0,1-.26.1,1.084,1.084,0,0,1-.213-.024l.047.393a1.342,1.342,0,0,0,.284.03,1,1,0,0,0,.256-.03.546.546,0,0,0,.328-.227,1.418,1.418,0,0,0,.126-.254l.787-2.155h-.517L38.151,32.7,37.7,31.359Zm1.805,0h.46v.258a.744.744,0,0,1,.592-.305.637.637,0,0,1,.316.075.573.573,0,0,1,.22.227.88.88,0,0,1,.269-.227.66.66,0,0,1,.308-.075.685.685,0,0,1,.354.085.514.514,0,0,1,.215.25,1.06,1.06,0,0,1,.052.392v1.213h-.5V32.168a.818.818,0,0,0-.052-.365.236.236,0,0,0-.213-.107.34.34,0,0,0-.2.064.357.357,0,0,0-.133.189,1.359,1.359,0,0,0-.041.392v.911h-.5v-1.04a1.452,1.452,0,0,0-.026-.357.227.227,0,0,0-.083-.12.262.262,0,0,0-.152-.039.345.345,0,0,0-.34.243,1.337,1.337,0,0,0-.04.391v.922h-.5V31.36Zm4.4.452a.49.49,0,0,1,.113.336h-.752a.473.473,0,0,1,.106-.33.348.348,0,0,1,.272-.121.342.342,0,0,1,.261.115Zm.584.928-.5-.083a.392.392,0,0,1-.122.206.311.311,0,0,1-.2.064.383.383,0,0,1-.29-.125.508.508,0,0,1-.123-.348h1.258a1.237,1.237,0,0,0-.234-.86.838.838,0,0,0-.667-.28.81.81,0,0,0-.623.267,1.052,1.052,0,0,0-.247.74,1.089,1.089,0,0,0,.188.655.847.847,0,0,0,.732.324.9.9,0,0,0,.52-.143.819.819,0,0,0,.305-.417Zm2.262.513h-.5v-.968a1.543,1.543,0,0,0-.031-.4.28.28,0,0,0-.1-.14.3.3,0,0,0-.173-.05.4.4,0,0,0-.232.072.36.36,0,0,0-.141.189,1.622,1.622,0,0,0-.038.436v.86h-.5V31.359h.466v.278a.769.769,0,0,1,.926-.265.51.51,0,0,1,.207.153.548.548,0,0,1,.1.21,1.545,1.545,0,0,1,.028.338v1.18Zm1.482-1.494v-.4h-.342v-.673l-.5.3v.379h-.228v.4h.228v.827a2.411,2.411,0,0,0,.016.354.466.466,0,0,0,.07.195.354.354,0,0,0,.158.118.627.627,0,0,0,.243.046.983.983,0,0,0,.393-.075l-.044-.388a.627.627,0,0,1-.2.048.137.137,0,0,1-.083-.025.11.11,0,0,1-.044-.064,1.933,1.933,0,0,1-.01-.27v-.767h.343Zm.282.96.5-.078a.354.354,0,0,0,.13.22.44.44,0,0,0,.273.076.49.49,0,0,0,.292-.072.16.16,0,0,0,.066-.135.132.132,0,0,0-.036-.1.4.4,0,0,0-.169-.066,2.719,2.719,0,0,1-.771-.246.489.489,0,0,1-.226-.427.528.528,0,0,1,.195-.415.912.912,0,0,1,.6-.168,1.062,1.062,0,0,1,.58.126.645.645,0,0,1,.262.372l-.471.088a.292.292,0,0,0-.117-.169.427.427,0,0,0-.244-.059.552.552,0,0,0-.286.056.119.119,0,0,0-.058.1.113.113,0,0,0,.05.092,1.962,1.962,0,0,0,.47.142,1.374,1.374,0,0,1,.56.224.466.466,0,0,1,.158.375.577.577,0,0,1-.217.45.962.962,0,0,1-.643.188,1.057,1.057,0,0,1-.611-.156.72.72,0,0,1-.295-.425Zm4.458-1.468.365.97h-.717l.352-.97Zm.765,2h.569l-1.054-2.614H52.7l-1.01,2.614h.558l.215-.591h1.052l.226.591Zm1.43,0h-.5V31.36h.465v.27a.84.84,0,0,1,.215-.254.386.386,0,0,1,.217-.063.638.638,0,0,1,.33.095l-.153.439a.442.442,0,0,0-.236-.082.28.28,0,0,0-.179.058.39.39,0,0,0-.115.21,2.96,2.96,0,0,0-.042.635v.585Zm2.064-1.44a.49.49,0,0,1,.112.335h-.752a.473.473,0,0,1,.106-.33.348.348,0,0,1,.272-.121.344.344,0,0,1,.262.115Zm.584.927-.5-.083a.394.394,0,0,1-.122.206.312.312,0,0,1-.2.064.384.384,0,0,1-.29-.125.508.508,0,0,1-.123-.348h1.258a1.242,1.242,0,0,0-.233-.86.84.84,0,0,0-.668-.28.81.81,0,0,0-.623.267,1.052,1.052,0,0,0-.247.74,1.089,1.089,0,0,0,.188.655.847.847,0,0,0,.732.324.9.9,0,0,0,.521-.143.818.818,0,0,0,.305-.417Zm1.583-.394a3.08,3.08,0,0,1-.3.077.906.906,0,0,0-.272.087.21.21,0,0,0-.1.178.248.248,0,0,0,.078.182.271.271,0,0,0,.2.077.43.43,0,0,0,.257-.09.314.314,0,0,0,.119-.166,1.01,1.01,0,0,0,.02-.245v-.1Zm-.674-.41-.45-.083a.71.71,0,0,1,.263-.407.957.957,0,0,1,.556-.133,1.2,1.2,0,0,1,.5.08.5.5,0,0,1,.23.2,1.023,1.023,0,0,1,.068.449l-.006.586A2.042,2.042,0,0,0,59.91,33a1.067,1.067,0,0,0,.09.254h-.5a1.8,1.8,0,0,1-.066-.2.907.907,0,0,1-.274.188.783.783,0,0,1-.311.063.642.642,0,0,1-.46-.159.53.53,0,0,1-.168-.4.542.542,0,0,1,.076-.287.5.5,0,0,1,.215-.193,1.693,1.693,0,0,1,.4-.117,2.76,2.76,0,0,0,.487-.123v-.05a.265.265,0,0,0-.072-.21.43.43,0,0,0-.27-.062.36.36,0,0,0-.21.053.368.368,0,0,0-.122.186Zm-5.62-13.214,1.723,5.931H51.435l1.672-5.93Zm-2.462,8.6h4.915l.7,2.365h3.723L55.83,16H50.284l-4.1,13.683h3.8l.66-2.365Z" fill="#10298e" fill-rule="evenodd"/>
  <path id="Pfad_93" data-name="Pfad 93" d="M31.07,17.925a4.831,4.831,0,0,1,3.76,1.8l.792-1.7a6.959,6.959,0,0,0-11.178,2.336H22.9l-.913,1.96h1.988a6.606,6.606,0,0,0,.01,1.215h-1l-.912,1.96h2.42a6.967,6.967,0,0,0,10.218,2.947v-2.4a4.832,4.832,0,0,1-7.692-.546h5.066L33,23.529H26.273a4.973,4.973,0,0,1-.028-1.215h7.317l.913-1.96h-7.6a4.843,4.843,0,0,1,4.2-2.429Z" fill="#ffbe00" fill-rule="evenodd"/>
</svg>