<?xml version="1.0" standalone="no"?>
<!DOCTYPE svg PUBLIC "-//W3C//DTD SVG 20010904//EN"
 "http://www.w3.org/TR/2001/REC-SVG-20010904/DTD/svg10.dtd">
<svg version="1.0" xmlns="http://www.w3.org/2000/svg"
 width="816.000000pt" height="816.000000pt" viewBox="0 0 816.000000 816.000000"
 preserveAspectRatio="xMidYMid meet">
<metadata>
Created by potrace 1.14, written by Peter Selinger 2001-2017
</metadata>
<g transform="translate(0.000000,816.000000) scale(0.100000,-0.100000)"
fill="#000000" stroke="none">
<path d="M2032 7598 c-7 -7 -12 -15 -12 -19 0 -3 -37 -69 -82 -145 -45 -76
-90 -155 -100 -174 -10 -19 -28 -51 -39 -70 -81 -136 -129 -220 -129 -224 0
-3 -13 -25 -30 -49 -16 -25 -30 -48 -30 -51 0 -3 -15 -29 -34 -58 -18 -29 -36
-63 -40 -75 -4 -13 -12 -23 -17 -23 -5 0 -9 -4 -9 -9 0 -4 -22 -46 -49 -92
-26 -46 -86 -150 -133 -231 -47 -80 -88 -152 -92 -160 -3 -7 -17 -31 -31 -53
-14 -22 -30 -51 -36 -65 -6 -13 -14 -27 -18 -30 -4 -3 -21 -30 -36 -60 -16
-30 -42 -74 -58 -97 -15 -24 -24 -43 -20 -43 4 0 4 -4 -2 -8 -10 -7 -15 -16
-63 -101 -13 -25 -32 -57 -41 -71 -10 -14 -28 -46 -42 -72 -13 -27 -27 -48
-31 -48 -5 0 -8 -4 -8 -8 0 -7 -52 -102 -115 -210 -84 -144 -105 -183 -105
-192 0 -5 -3 -10 -8 -10 -4 0 -18 -21 -32 -47 -13 -27 -38 -70 -56 -98 -17
-27 -34 -57 -37 -65 -4 -8 -15 -29 -26 -45 -10 -17 -78 -134 -151 -260 -171
-296 -166 -289 -191 -332 -12 -21 -43 -75 -70 -121 -27 -46 -50 -87 -52 -91
-3 -11 26 -81 34 -81 4 0 9 -8 12 -17 3 -10 19 -39 34 -65 66 -109 93 -158 93
-168 0 -5 4 -10 9 -10 5 0 13 -10 16 -21 4 -12 25 -49 46 -83 21 -33 39 -67
39 -73 0 -7 4 -13 8 -13 5 0 14 -16 22 -35 8 -19 17 -35 22 -35 4 0 8 -4 8 -9
0 -4 30 -60 66 -122 37 -63 78 -134 92 -159 13 -25 31 -52 38 -61 8 -8 14 -19
14 -23 0 -5 15 -34 34 -65 19 -31 43 -73 55 -93 53 -95 64 -115 81 -138 9 -14
19 -32 22 -40 3 -8 31 -57 62 -109 31 -51 56 -97 56 -102 0 -5 5 -9 10 -9 6 0
10 -5 10 -10 0 -9 58 -112 127 -228 12 -20 25 -44 29 -52 4 -8 27 -48 51 -88
24 -41 43 -78 43 -83 0 -5 4 -9 9 -9 5 0 11 -8 14 -17 6 -18 18 -39 147 -260
41 -70 83 -144 94 -163 10 -19 27 -47 37 -62 11 -14 19 -33 19 -42 0 -9 4 -16
8 -16 5 0 16 -15 25 -32 9 -18 21 -40 27 -48 22 -34 140 -242 140 -247 0 -4 6
-14 14 -22 12 -15 66 -108 90 -158 6 -13 14 -23 19 -23 4 0 7 -4 7 -9 0 -5 23
-49 51 -98 29 -48 63 -108 77 -133 14 -25 36 -62 49 -82 12 -21 23 -42 23 -47
0 -5 3 -11 8 -13 4 -1 15 -16 24 -33 l17 -30 2045 -3 c1338 -1 2046 1 2046 8
0 5 18 39 40 75 22 36 40 67 40 69 0 9 75 131 85 138 5 4 7 8 2 8 -4 0 4 17
17 38 22 33 144 244 202 347 12 22 48 85 81 140 32 55 62 107 66 115 4 8 21
38 38 65 16 28 33 58 36 67 3 10 9 18 14 18 5 0 9 6 9 14 0 8 6 21 13 28 6 7
25 38 41 68 16 30 35 62 42 71 8 8 14 19 14 22 0 12 193 341 205 349 5 4 6 8
2 8 -5 0 0 12 11 28 10 15 59 97 107 182 49 85 97 167 107 183 11 15 16 27 11
27 -4 0 -3 4 3 8 6 4 24 30 38 57 15 28 50 88 77 134 27 46 49 88 49 92 0 5 3
9 8 9 4 0 12 10 18 23 25 52 58 112 64 117 4 3 13 20 21 38 8 17 17 32 20 32
3 0 16 23 29 50 13 28 27 50 32 50 4 0 8 6 8 14 0 8 6 21 13 28 6 7 20 29 29
48 10 19 29 53 43 75 14 22 28 47 32 55 4 8 44 79 90 158 46 79 83 147 83 152
0 4 4 10 8 12 5 1 22 28 38 58 17 30 56 99 87 152 l57 97 -19 33 c-11 18 -29
50 -40 70 -36 65 -46 83 -57 98 -6 8 -22 35 -35 60 -13 25 -26 47 -29 50 -3 3
-18 30 -34 60 -16 30 -34 58 -40 62 -6 4 -7 8 -2 8 5 0 2 8 -6 18 -9 9 -25 35
-37 57 -11 22 -35 63 -51 90 -17 28 -35 62 -41 78 -6 15 -15 27 -20 27 -5 0
-9 4 -9 9 0 6 -30 61 -66 123 -37 62 -80 138 -97 168 -17 30 -38 66 -47 80 -9
14 -41 68 -70 120 -29 52 -59 102 -66 110 -7 8 -13 20 -15 25 -3 17 -60 115
-70 121 -5 3 -7 10 -4 15 4 5 1 9 -4 9 -6 0 -11 4 -11 9 0 4 -37 71 -81 147
-45 76 -91 155 -102 174 -54 96 -72 126 -82 132 -5 4 -7 8 -3 8 4 0 -13 33
-37 74 -25 40 -45 78 -45 84 0 6 -4 12 -8 14 -4 2 -37 54 -72 117 -73 127 -80
140 -133 229 -20 35 -37 67 -37 73 0 5 -4 9 -10 9 -5 0 -10 5 -10 11 0 6 -36
71 -80 146 -44 74 -80 139 -80 144 0 5 -4 9 -10 9 -5 0 -10 5 -10 11 0 6 -17
39 -37 73 -21 33 -37 64 -36 68 1 3 -4 12 -12 18 -8 7 -15 19 -15 26 0 8 -4
14 -10 14 -5 0 -10 4 -10 9 0 4 -21 45 -47 90 -27 45 -61 106 -78 136 -16 30
-36 60 -42 67 -7 6 -13 16 -13 21 0 5 -16 36 -36 68 l-35 59 -2038 0 c-1571 0
-2040 -3 -2049 -12z"/>
</g>
</svg>
