<svg id="Majorcloud-Logo-Bildlogo-Light"
  xmlns="http://www.w3.org/2000/svg"
  xmlns:xlink="http://www.w3.org/1999/xlink" width="234.868" height="43.897" viewBox="0 0 234.868 43.897">
  <defs>
    <linearGradient id="linear-gradient" x1="0.87" y1="-0.087" x2="0.16" y2="1.051" gradientUnits="objectBoundingBox">
      <stop offset="0" stop-color="#13c0e5"/>
      <stop offset="0.289" stop-color="#18c2c8"/>
      <stop offset="0.674" stop-color="#0e919c"/>
      <stop offset="1" stop-color="#037e8c"/>
    </linearGradient>
  </defs>
  <path id="Pfad_100" data-name="Pfad 100" d="M-56.722,6.639V-1.987A50.3,50.3,0,0,0-56.985-8.7l6.091,15.342h3.885l6.124-15.375a60.4,60.4,0,0,0-.23,7.967V6.639h4.082V-17.428h-4.148l-7.77,19.161-7.77-19.161H-60.8V6.639Zm29.269.428c2.535,0,4.741-1.152,5.432-2.831l.3,2.4H-18.2V-3.238c0-4.51-2.7-6.881-7.078-6.881-4.412,0-7.309,2.3-7.309,5.827h3.424c0-1.712,1.317-2.7,3.687-2.7,2.041,0,3.358.889,3.358,3.095v.362l-4.873.362C-30.844-2.876-33.017-1-33.017,2-33.017,5.058-30.91,7.067-27.453,7.067Zm1.317-3.029c-1.811,0-2.8-.724-2.8-2.206,0-1.317.955-2.14,3.457-2.37L-22.086-.8V.054A3.719,3.719,0,0,1-26.136,4.038Zm13.894-16.922a2.452,2.452,0,0,0,2.436-2.436,2.424,2.424,0,0,0-2.436-2.4,2.4,2.4,0,0,0-2.436,2.4A2.431,2.431,0,0,0-12.242-12.885Zm-5.893,27.162a7.875,7.875,0,0,0,2.4.362c3.523,0,5.5-2.239,5.5-5.7V-9.625h-4.017V8.482c0,1.646-.461,2.436-1.844,2.436a4.252,4.252,0,0,1-1.383-.2Zm11.1-15.8a8.281,8.281,0,0,0,8.692,8.56,8.281,8.281,0,0,0,8.692-8.56,8.281,8.281,0,0,0-8.692-8.56A8.281,8.281,0,0,0-7.041-1.526Zm4.017,0c0-2.963,1.91-4.971,4.675-4.971S6.326-4.489,6.326-1.526,4.417,3.445,1.651,3.445-3.024,1.437-3.024-1.526ZM23.742-9.691a7.126,7.126,0,0,0-1.778-.23,4.539,4.539,0,0,0-4.412,2.7l-.23-2.37H13.536V6.639h4.017v-7.9c0-3.161,1.811-4.708,4.708-4.708h1.482Zm1.218,8.165c0,5.169,3.226,8.593,8.165,8.593,4.247,0,7.408-2.6,7.9-6.387h-4.05a3.608,3.608,0,0,1-3.852,2.766c-2.568,0-4.148-1.91-4.148-4.971s1.712-5,4.28-5a3.521,3.521,0,0,1,3.72,2.8h4.017c-.428-3.918-3.457-6.387-7.9-6.387C28.286-10.119,24.961-6.563,24.961-1.526ZM48.073,6.639V-17.856H44.089V6.639Zm3.259-8.165a8.281,8.281,0,0,0,8.692,8.56,8.281,8.281,0,0,0,8.692-8.56,8.281,8.281,0,0,0-8.692-8.56A8.281,8.281,0,0,0,51.332-1.526Zm4.017,0c0-2.963,1.91-4.971,4.675-4.971S64.7-4.489,64.7-1.526s-1.91,4.971-4.675,4.971S55.349,1.437,55.349-1.526Zm27.194-8.1V-1.1c0,3.095-1.218,4.576-3.753,4.576-2.239,0-3.457-1.251-3.457-4.346V-9.625H71.316V.548c0,3.984,2.206,6.519,5.959,6.519a6.362,6.362,0,0,0,5.268-2.6l.3,2.173h3.72V-9.625ZM97.062,7.067A6.059,6.059,0,0,0,102.626,4.1l.263,2.535h3.687V-17.856h-3.984v10.3a6.149,6.149,0,0,0-5.3-2.568c-4.906,0-7.869,3.622-7.869,8.692C89.424,3.61,92.354,7.067,97.062,7.067Zm.889-3.687c-2.8,0-4.51-2.041-4.51-4.938s1.712-4.971,4.51-4.971,4.609,2.041,4.609,4.971S100.75,3.379,97.951,3.379Z" transform="translate(128.291 27.656)" fill="#f6f6f6"/>
  <g id="Gruppe_122" data-name="Gruppe 122" transform="translate(0 0)">
    <path id="Polygon_1" data-name="Polygon 1" d="M38.067,0,50.756,21.949,38.067,43.9H12.689L0,21.949,12.689,0Z" transform="translate(0 0)" fill="url(#linear-gradient)"/>
    <g id="Gruppe_120" data-name="Gruppe 120" transform="translate(17.356 12.124)">
      <line id="Linie_10" data-name="Linie 10" y2="10.644" transform="translate(0 4.503)" fill="none" stroke="#f6f6f6" stroke-linecap="round" stroke-width="1.5"/>
      <line id="Linie_11" data-name="Linie 11" y2="17.194" transform="translate(4.011 1.228)" fill="none" stroke="#f6f6f6" stroke-linecap="round" stroke-width="1.5"/>
      <line id="Linie_12" data-name="Linie 12" y2="19.65" transform="translate(8.022 0)" fill="none" stroke="#f6f6f6" stroke-linecap="round" stroke-width="1.5"/>
      <line id="Linie_13" data-name="Linie 13" y2="16.375" transform="translate(12.033 1.637)" fill="none" stroke="#f6f6f6" stroke-linecap="round" stroke-width="1.5"/>
      <line id="Linie_14" data-name="Linie 14" y2="11.462" transform="translate(16.044 4.094)" fill="none" stroke="#f6f6f6" stroke-linecap="round" stroke-width="1.5"/>
    </g>
  </g>
</svg>